<svg width="1512" height="982" fill="none" xmlns="http://www.w3.org/2000/svg"><g clip-path="url(#clip0_1_1497)"><ellipse cx="531.1" cy="358.6" rx="18.1" ry="19" fill="#B4CFEF"/><path d="M590 340c0 10-9 19-19 19s-18-9-18-19c0-11 8-19 18-19s19 8 19 19Z" fill="#B4CFEF"/><path d="M632 360c0 16-14 5-32 5s-21-4-21-20 3-12 21-12 32 11 32 27Z" fill="#B4CFEF"/><path d="M604 339c0 7-5 13-11 13s-11-6-11-13 5-13 11-13 11 6 11 13Z" fill="#B4CFEF"/><path d="M604 339c0 7-5 13-11 13s-11-6-11-13 5-13 11-13 11 6 11 13Z" fill="#B4CFEF"/><path d="M604 327c0 7-5 13-11 13s-11-6-11-13 5-13 11-13 11 6 11 13ZM636 350c0 7-5 13-11 13-7 0-11-6-11-13s4-13 11-13c6 0 11 6 11 13Z" fill="#B4CFEF"/><ellipse cx="549.1" cy="352" rx="18.1" ry="25.5" fill="#B4CFEF"/><ellipse cx="607.6" cy="349.6" rx="18.1" ry="25.5" fill="#B4CFEF"/><ellipse cx="626.8" cy="362.4" rx="13.2" ry="15.2" fill="#B4CFEF"/><path fill="#B4CFEF" d="M531 352h96v26h-96z"/><ellipse cx="39.2" cy="287.8" rx="30.8" ry="26.4" fill="#B4CFEF"/><path d="M132 261c0 15-14 27-31 27s-31-12-31-27c0-14 14-26 31-26s31 12 31 26Z" fill="#B4CFEF"/><path d="M211 290c0 21-23 7-54 7s-36-6-36-28 5-17 36-17 54 16 54 38Z" fill="#B4CFEF"/><path d="M163 261c0 10-8 18-19 18-10 0-19-8-19-18s9-18 19-18c11 0 19 8 19 18Z" fill="#B4CFEF"/><ellipse cx="70" cy="278.6" rx="30.8" ry="35.6" fill="#B4CFEF"/><ellipse cx="202.4" cy="296.6" rx="22.6" ry="17.8" fill="#B4CFEF"/><path fill="#B4CFEF" d="M39 279h163v35H39z"/><path fill="#B4CFEF" d="M141 279h163v35H141z"/><ellipse cx="126.3" cy="239.8" rx="25.5" ry="18.8" fill="#B4CFEF"/><ellipse cx="131.5" cy="228.1" rx="20.6" ry="11.8" fill="#B4CFEF"/><ellipse cx="151.8" cy="230.8" rx="25.5" ry="18.8" fill="#B4CFEF"/><ellipse cx="179.8" cy="250.4" rx="25.5" ry="18.8" fill="#B4CFEF"/><ellipse cx="216.7" cy="268.3" rx="25.5" ry="18.8" fill="#B4CFEF"/><ellipse cx="236.8" cy="284" rx="25.5" ry="18.8" fill="#B4CFEF"/><ellipse cx="236.8" cy="269.3" rx="25.5" ry="18.8" fill="#B4CFEF"/><ellipse cx="238.9" cy="283" rx="51.3" ry="18.8" fill="#B4CFEF"/><ellipse cx="287.7" cy="287.8" rx="16.5" ry="19.3" fill="#B4CFEF"/><ellipse cx="304.2" cy="295.4" rx="16.5" ry="18.9" fill="#B4CFEF"/><ellipse cx="211.5" cy="275.8" rx="20.3" ry="33.6" fill="#B4CFEF"/><ellipse cx="279.1" cy="320.5" rx="19.7" ry="26.4" fill="#B4CFEF"/><path d="M338 294c0 15-9 26-20 26-10 0-19-11-19-26s9-26 19-26c11 0 20 11 20 26Z" fill="#B4CFEF"/><path d="M389 322c0 22-15 8-35 8s-23-7-23-28c0-22 3-18 23-18s35 17 35 38Z" fill="#B4CFEF"/><path d="M358 293c0 10-5 18-12 18s-12-8-12-18 5-18 12-18 12 8 12 18Z" fill="#B4CFEF"/><ellipse cx="298.8" cy="311.3" rx="19.7" ry="35.6" fill="#B4CFEF"/><ellipse cx="383.3" cy="329.3" rx="14.4" ry="17.8" fill="#B4CFEF"/><path fill="#B4CFEF" d="M279 311h104v36H279z"/><path fill="#B4CFEF" d="M344 312h104v35H344z"/><ellipse cx="334.7" cy="272.4" rx="16.3" ry="18.8" fill="#B4CFEF"/><ellipse cx="338.1" cy="260.8" rx="13.2" ry="11.8" fill="#B4CFEF"/><ellipse cx="351" cy="263.5" rx="16.3" ry="18.8" fill="#B4CFEF"/><ellipse cx="368.9" cy="283.1" rx="16.3" ry="18.8" fill="#B4CFEF"/><ellipse cx="392.5" cy="301" rx="16.3" ry="18.8" fill="#B4CFEF"/><ellipse cx="405.3" cy="316.6" rx="16.3" ry="18.8" fill="#B4CFEF"/><ellipse cx="405.3" cy="302" rx="16.3" ry="18.8" fill="#B4CFEF"/><ellipse cx="406.7" cy="315.6" rx="32.8" ry="18.8" fill="#B4CFEF"/><ellipse cx="437.8" cy="320.5" rx="10.5" ry="19.3" fill="#B4CFEF"/><ellipse cx="448.4" cy="328.1" rx="10.5" ry="18.9" fill="#B4CFEF"/><ellipse cx="389.1" cy="308.5" rx="12.9" ry="33.6" fill="#B4CFEF"/><ellipse cx="19.9" cy="360.4" rx="36.9" ry="43.3" fill="#CEE9FF"/><path d="M139 317c0 24-16 43-37 43-20 0-37-19-37-43s17-43 37-43c21 0 37 19 37 43Z" fill="#CEE9FF"/><path d="M226 363c0 36-28 12-65 12s-43-10-43-45c0-36 6-29 43-29s65 27 65 62Z" fill="#CEE9FF"/><path d="M168 316c0 16-10 29-22 29-13 0-23-13-23-29s10-29 23-29c12 0 22 13 22 29Z" fill="#CEE9FF"/><path d="M168 316c0 16-10 29-22 29-13 0-23-13-23-29s10-29 23-29c12 0 22 13 22 29Z" fill="#CEE9FF"/><path d="M168 288c0 16-10 29-22 29-13 0-23-13-23-29 0-17 10-30 23-30 12 0 22 13 22 30ZM234 340c0 16-11 29-23 29-13 0-23-13-23-29s10-29 23-29c12 0 23 13 23 29Z" fill="#CEE9FF"/><ellipse cx="56.8" cy="345.4" rx="36.9" ry="58.3" fill="#CEE9FF"/><ellipse cx="176.1" cy="340" rx="36.9" ry="58.3" fill="#CEE9FF"/><ellipse cx="215.2" cy="369.1" rx="27" ry="34.6" fill="#CEE9FF"/><path fill="#CEE9FF" d="M20 345h195v59H20z"/><ellipse cx="287.7" cy="388.4" rx="36.9" ry="43.3" fill="#CEE9FF"/><path d="M398 345c0 24-16 43-37 43-20 0-36-19-36-43s16-43 36-43c21 0 37 19 37 43Z" fill="#CEE9FF"/><path d="M494 391c0 36-29 12-66 12s-42-10-42-45c0-36 5-29 42-29s66 27 66 62Z" fill="#CEE9FF"/><path d="M436 344c0 16-10 29-23 29-12 0-22-13-22-29s10-29 22-29c13 0 23 13 23 29Z" fill="#CEE9FF"/><ellipse cx="324.6" cy="373.5" rx="36.9" ry="58.3" fill="#CEE9FF"/><ellipse cx="482.9" cy="402.9" rx="27" ry="29.1" fill="#CEE9FF"/><path fill="#CEE9FF" d="M288 374h195v58H288z"/><path fill="#CEE9FF" d="M410 374h195v58H410z"/><ellipse cx="392" cy="309.7" rx="30.5" ry="30.8" fill="#CEE9FF"/><ellipse cx="398.2" cy="290.7" rx="24.7" ry="19.3" fill="#CEE9FF"/><ellipse cx="422.4" cy="295" rx="30.5" ry="30.8" fill="#CEE9FF"/><ellipse cx="455.9" cy="327.2" rx="30.5" ry="30.8" fill="#CEE9FF"/><ellipse cx="500.1" cy="356.6" rx="30.5" ry="30.8" fill="#CEE9FF"/><ellipse cx="524.1" cy="382.2" rx="30.5" ry="30.8" fill="#CEE9FF"/><ellipse cx="524.1" cy="358.2" rx="30.5" ry="30.8" fill="#CEE9FF"/><ellipse cx="526.7" cy="380.5" rx="61.4" ry="30.8" fill="#CEE9FF"/><ellipse cx="585.1" cy="388.4" rx="19.7" ry="31.6" fill="#CEE9FF"/><ellipse cx="604.8" cy="401" rx="19.7" ry="31" fill="#CEE9FF"/><ellipse cx="493.9" cy="368.8" rx="24.2" ry="55" fill="#CEE9FF"/><ellipse cx="1419.1" cy="342.6" rx="18.1" ry="19" fill="#B4CFEF"/><path d="M1478 324c0 10-9 19-19 19s-18-9-18-19c0-11 8-19 18-19s19 8 19 19Z" fill="#B4CFEF"/><path d="M1520 344c0 16-14 5-32 5s-21-4-21-20 3-12 21-12 32 11 32 27Z" fill="#B4CFEF"/><path d="M1492 323c0 7-5 13-11 13s-11-6-11-13 5-13 11-13 11 6 11 13Z" fill="#B4CFEF"/><path d="M1492 323c0 7-5 13-11 13s-11-6-11-13 5-13 11-13 11 6 11 13Z" fill="#B4CFEF"/><path d="M1492 311c0 7-5 13-11 13s-11-6-11-13 5-13 11-13 11 6 11 13ZM1524 334c0 7-5 13-11 13-7 0-11-6-11-13s4-13 11-13c6 0 11 6 11 13Z" fill="#B4CFEF"/><ellipse cx="1437.2" cy="336" rx="18.1" ry="25.5" fill="#B4CFEF"/><ellipse cx="1495.6" cy="333.6" rx="18.1" ry="25.5" fill="#B4CFEF"/><ellipse cx="1514.8" cy="346.4" rx="13.2" ry="15.2" fill="#B4CFEF"/><path fill="#B4CFEF" d="M1419 336h96v26h-96z"/><ellipse cx="927.2" cy="271.8" rx="30.8" ry="26.4" fill="#B4CFEF"/><path d="M1020 245c0 15-14 27-31 27s-31-12-31-27c0-14 14-26 31-26s31 12 31 26Z" fill="#B4CFEF"/><path d="M1099 274c0 21-23 7-54 7s-36-6-36-28 5-17 36-17 54 16 54 38Z" fill="#B4CFEF"/><path d="M1051 245c0 10-8 18-19 18-10 0-19-8-19-18s9-18 19-18c11 0 19 8 19 18Z" fill="#B4CFEF"/><ellipse cx="958" cy="262.6" rx="30.8" ry="35.6" fill="#B4CFEF"/><ellipse cx="1090.4" cy="280.6" rx="22.6" ry="17.8" fill="#B4CFEF"/><path fill="#B4CFEF" d="M927 263h163v35H927z"/><path fill="#B4CFEF" d="M1029 263h163v35h-163z"/><ellipse cx="1014.3" cy="223.8" rx="25.5" ry="18.8" fill="#B4CFEF"/><ellipse cx="1019.5" cy="212.1" rx="20.6" ry="11.8" fill="#B4CFEF"/><ellipse cx="1039.8" cy="214.8" rx="25.5" ry="18.8" fill="#B4CFEF"/><ellipse cx="1067.8" cy="234.4" rx="25.5" ry="18.8" fill="#B4CFEF"/><ellipse cx="1104.7" cy="252.3" rx="25.5" ry="18.8" fill="#B4CFEF"/><ellipse cx="1124.8" cy="268" rx="25.5" ry="18.8" fill="#B4CFEF"/><ellipse cx="1124.8" cy="253.3" rx="25.5" ry="18.8" fill="#B4CFEF"/><ellipse cx="1127" cy="267" rx="51.3" ry="18.8" fill="#B4CFEF"/><ellipse cx="1175.7" cy="271.8" rx="16.5" ry="19.3" fill="#B4CFEF"/><ellipse cx="1192.2" cy="279.4" rx="16.5" ry="18.9" fill="#B4CFEF"/><ellipse cx="1099.5" cy="259.8" rx="20.3" ry="33.6" fill="#B4CFEF"/><ellipse cx="1167.1" cy="304.5" rx="19.7" ry="26.4" fill="#B4CFEF"/><path d="M1226 278c0 15-9 26-20 26-10 0-19-11-19-26s9-26 19-26c11 0 20 11 20 26Z" fill="#B4CFEF"/><path d="M1277 306c0 22-15 8-35 8s-23-7-23-28c0-22 3-18 23-18s35 17 35 38Z" fill="#B4CFEF"/><path d="M1246 277c0 10-5 18-12 18s-12-8-12-18 5-18 12-18 12 8 12 18Z" fill="#B4CFEF"/><ellipse cx="1186.8" cy="295.3" rx="19.7" ry="35.6" fill="#B4CFEF"/><ellipse cx="1271.3" cy="313.3" rx="14.4" ry="17.8" fill="#B4CFEF"/><path fill="#B4CFEF" d="M1167 295h104v36h-104z"/><path fill="#B4CFEF" d="M1232 296h104v35h-104z"/><ellipse cx="1222.7" cy="256.4" rx="16.3" ry="18.8" fill="#B4CFEF"/><ellipse cx="1226.1" cy="244.8" rx="13.2" ry="11.8" fill="#B4CFEF"/><ellipse cx="1239" cy="247.5" rx="16.3" ry="18.8" fill="#B4CFEF"/><ellipse cx="1256.9" cy="267.1" rx="16.3" ry="18.8" fill="#B4CFEF"/><ellipse cx="1280.5" cy="285" rx="16.3" ry="18.8" fill="#B4CFEF"/><ellipse cx="1293.3" cy="300.6" rx="16.3" ry="18.8" fill="#B4CFEF"/><ellipse cx="1293.3" cy="286" rx="16.3" ry="18.8" fill="#B4CFEF"/><ellipse cx="1294.7" cy="299.6" rx="32.8" ry="18.8" fill="#B4CFEF"/><ellipse cx="1325.8" cy="304.5" rx="10.5" ry="19.3" fill="#B4CFEF"/><ellipse cx="1336.4" cy="312.1" rx="10.5" ry="18.9" fill="#B4CFEF"/><ellipse cx="1277.2" cy="292.5" rx="12.9" ry="33.6" fill="#B4CFEF"/><ellipse cx="907.9" cy="344.4" rx="36.9" ry="43.3" fill="#CEE9FF"/><path d="M1027 301c0 24-16 43-37 43-20 0-37-19-37-43s17-43 37-43c21 0 37 19 37 43Z" fill="#CEE9FF"/><path d="M1114 347c0 36-28 12-65 12s-43-10-43-45c0-36 6-29 43-29s65 27 65 62Z" fill="#CEE9FF"/><path d="M1056 300c0 16-10 29-22 29-13 0-23-13-23-29s10-29 23-29c12 0 22 13 22 29Z" fill="#CEE9FF"/><path d="M1056 300c0 16-10 29-22 29-13 0-23-13-23-29s10-29 23-29c12 0 22 13 22 29Z" fill="#CEE9FF"/><path d="M1056 272c0 16-10 29-22 29-13 0-23-13-23-29 0-17 10-30 23-30 12 0 22 13 22 30ZM1122 324c0 16-11 29-23 29-13 0-23-13-23-29s10-29 23-29c12 0 23 13 23 29Z" fill="#CEE9FF"/><ellipse cx="944.8" cy="329.4" rx="36.9" ry="58.3" fill="#CEE9FF"/><ellipse cx="1064.1" cy="324" rx="36.9" ry="58.3" fill="#CEE9FF"/><ellipse cx="1103.2" cy="353.1" rx="27" ry="34.6" fill="#CEE9FF"/><path fill="#CEE9FF" d="M908 329h195v59H908z"/><ellipse cx="1175.7" cy="372.4" rx="36.9" ry="43.3" fill="#CEE9FF"/><path d="M1286 329c0 24-16 43-37 43-20 0-36-19-36-43s16-43 36-43c21 0 37 19 37 43Z" fill="#CEE9FF"/><path d="M1382 375c0 36-29 12-66 12s-42-10-42-45c0-36 5-29 42-29s66 27 66 62Z" fill="#CEE9FF"/><path d="M1324 328c0 16-10 29-23 29-12 0-22-13-22-29s10-29 22-29c13 0 23 13 23 29Z" fill="#CEE9FF"/><ellipse cx="1212.6" cy="357.5" rx="36.9" ry="58.3" fill="#CEE9FF"/><ellipse cx="1370.9" cy="386.9" rx="27" ry="29.1" fill="#CEE9FF"/><path fill="#CEE9FF" d="M1176 358h195v58h-195z"/><path fill="#CEE9FF" d="M1298 358h195v58h-195z"/><ellipse cx="1280" cy="293.7" rx="30.5" ry="30.8" fill="#CEE9FF"/><ellipse cx="1286.2" cy="274.7" rx="24.7" ry="19.3" fill="#CEE9FF"/><ellipse cx="1310.4" cy="279" rx="30.5" ry="30.8" fill="#CEE9FF"/><ellipse cx="1343.9" cy="311.2" rx="30.5" ry="30.8" fill="#CEE9FF"/><ellipse cx="1388.1" cy="340.6" rx="30.5" ry="30.8" fill="#CEE9FF"/><ellipse cx="1412.1" cy="366.2" rx="30.5" ry="30.8" fill="#CEE9FF"/><ellipse cx="1412.1" cy="342.2" rx="30.5" ry="30.8" fill="#CEE9FF"/><ellipse cx="1414.7" cy="364.5" rx="61.4" ry="30.8" fill="#CEE9FF"/><ellipse cx="1473.1" cy="372.4" rx="19.7" ry="31.6" fill="#CEE9FF"/><ellipse cx="1492.8" cy="385" rx="19.7" ry="31" fill="#CEE9FF"/><ellipse cx="1381.9" cy="352.8" rx="24.2" ry="55" fill="#CEE9FF"/></g><defs><clipPath id="clip0_1_1497"><path fill="#fff" d="M0 0h1512v982H0z"/></clipPath></defs></svg>