<svg width="1512" height="982" fill="none" xmlns="http://www.w3.org/2000/svg"><g clip-path="url(#clip0_1_3)" fill="#1F4C0A"><path d="M0 420h1512v190H0z"/><path d="M858 363h654v74H858z"/><path d="M450 412h654v74H450zM1082 327h433v74h-433z"/><path d="M1315 285h200v86h-200zM148 389l25 48h-50l25-48Z"/><path d="m131 401 25 48h-50l25-48Z"/><path d="m106 391 25 48H81l25-48Z"/><path d="m119 405 25 48H94l25-48ZM206 377l25 69h-50l25-69Z"/><path d="m164 391 25 69h-50l25-69ZM222 405l25 48h-50l25-48Z"/><path d="m177 405 25 48h-50l25-48ZM239 389l25 48h-50l25-48Z"/><path d="m222 401 25 48h-50l25-48Z"/><path d="m197 391 25 48h-50l25-48Z"/><path d="m210 405 25 48h-50l25-48ZM297 377l25 69h-50l25-69Z"/><path d="m255 391 25 69h-50l25-69ZM313 405l25 48h-50l25-48Z"/><path d="m268 405 25 48h-50l25-48ZM355 375l25 48h-50l25-48Z"/><path d="m338 387 25 48h-50l25-48Z"/><path d="m313 377 25 48h-50l25-48Z"/><path d="m326 391 25 48h-50l25-48ZM413 363l25 69h-50l25-69Z"/><path d="m371 377 25 69h-50l25-69ZM429 391l25 48h-50l25-48Z"/><path d="m384 391 25 48h-50l25-48ZM293 392l25 48h-50l25-48Z"/><path d="m276 404 25 48h-50l25-48Z"/><path d="m251 394 25 48h-50l25-48Z"/><path d="m264 408 25 48h-50l25-48ZM351 380l25 69h-50l25-69Z"/><path d="m309 394 25 69h-50l25-69ZM367 408l25 48h-50l25-48Z"/><path d="m322 408 25 48h-50l25-48ZM503 375l25 48h-50l25-48Z"/><path d="m486 387 25 48h-50l25-48Z"/><path d="m461 377 25 48h-50l25-48Z"/><path d="m474 391 25 48h-50l25-48ZM561 363l25 69h-50l25-69Z"/><path d="m519 377 25 69h-50l25-69ZM577 391l25 48h-50l25-48Z"/><path d="m532 391 25 48h-50l25-48Z"/><path d="m545 375 25 48h-50l25-48Z"/><path d="m528 387 25 48h-50l25-48Z"/><path d="m503 377 25 48h-50l25-48Z"/><path d="m516 391 25 48h-50l25-48ZM603 363l25 69h-50l25-69Z"/><path d="m561 377 25 69h-50l25-69ZM619 391l25 48h-50l25-48Z"/><path d="m574 391 25 48h-50l25-48ZM628 363l25 48h-50l25-48Z"/><path d="m611 375 25 48h-50l25-48Z"/><path d="m586 365 25 48h-50l25-48Z"/><path d="m599 379 25 48h-50l25-48ZM686 351l25 69h-50l25-69Z"/><path d="m644 365 25 69h-50l25-69ZM702 379l25 48h-50l25-48Z"/><path d="m657 379 25 48h-50l25-48ZM757 357l25 48h-50l25-48Z"/><path d="m740 369 25 48h-50l25-48Z"/><path d="m715 359 25 48h-50l25-48Z"/><path d="m728 373 25 48h-50l25-48ZM815 345l25 69h-50l25-69Z"/><path d="m773 359 25 69h-50l25-69ZM831 373l25 48h-50l25-48Z"/><path d="m786 373 25 48h-50l25-48ZM886 333l25 48h-50l25-48Z"/><path d="m869 345 25 48h-50l25-48Z"/><path d="m844 335 25 48h-50l25-48Z"/><path d="m857 349 25 48h-50l25-48ZM944 321l25 69h-50l25-69Z"/><path d="m902 335 25 69h-50l25-69ZM960 349l25 48h-50l25-48Z"/><path d="m915 349 25 48h-50l25-48ZM1009 308l25 48h-50l25-48Z"/><path d="m992 320 25 48h-50l25-48Z"/><path d="m967 310 25 48h-50l25-48Z"/><path d="m980 324 25 48h-50l25-48ZM1067 296l25 69h-50l25-69Z"/><path d="m1025 310 25 69h-50l25-69ZM1083 324l25 48h-50l25-48Z"/><path d="m1038 324 25 48h-50l25-48ZM1125 283l25 48h-50l25-48Z"/><path d="m1108 295 25 48h-50l25-48Z"/><path d="m1083 285 25 48h-50l25-48Z"/><path d="m1096 299 25 48h-50l25-48ZM1183 271l25 69h-50l25-69Z"/><path d="m1141 285 25 69h-50l25-69ZM1199 299l25 48h-50l25-48Z"/><path d="m1154 299 25 48h-50l25-48ZM1241 263l25 48h-50l25-48Z"/><path d="m1224 275 25 48h-50l25-48Z"/><path d="m1199 265 25 48h-50l25-48Z"/><path d="m1212 279 25 48h-50l25-48ZM1299 251l25 69h-50l25-69Z"/><path d="m1257 265 25 69h-50l25-69ZM1315 279l25 48h-50l25-48Z"/><path d="m1270 279 25 48h-50l25-48ZM1328 263l25 48h-50l25-48Z"/><path d="m1311 275 25 48h-50l25-48Z"/><path d="m1286 265 25 48h-50l25-48Z"/><path d="m1299 279 25 48h-50l25-48ZM1386 251l25 69h-50l25-69Z"/><path d="m1344 265 25 69h-50l25-69ZM1402 279l25 48h-50l25-48Z"/><path d="m1357 279 25 48h-50l25-48ZM1428 239l25 48h-50l25-48Z"/><path d="m1411 251 25 48h-50l25-48Z"/><path d="m1386 241 25 48h-50l25-48Z"/><path d="m1399 255 25 48h-50l25-48ZM1486 227l25 69h-50l25-69Z"/><path d="m1444 241 25 69h-50l25-69ZM1502 255l25 48h-50l25-48Z"/><path d="m1457 255 25 48h-50l25-48ZM1353 255l25 48h-50l25-48Z"/><path d="m1336 267 25 48h-50l25-48Z"/><path d="m1311 257 25 48h-50l25-48Z"/><path d="m1324 271 25 48h-50l25-48ZM1411 243l25 69h-50l25-69Z"/><path d="m1369 257 25 69h-50l25-69ZM1427 271l25 48h-50l25-48Z"/><path d="m1382 271 25 48h-50l25-48ZM1150 275l25 48h-50l25-48Z"/><path d="m1133 287 25 48h-50l25-48Z"/><path d="m1108 277 25 48h-50l25-48Z"/><path d="m1121 291 25 48h-50l25-48ZM1208 263l25 69h-50l25-69Z"/><path d="m1166 277 25 69h-50l25-69ZM1224 291l25 48h-50l25-48Z"/><path d="m1179 291 25 48h-50l25-48ZM916 331l25 48h-50l25-48Z"/><path d="m899 343 25 48h-50l25-48Z"/><path d="m874 333 25 48h-50l25-48Z"/><path d="m887 347 25 48h-50l25-48ZM974 319l25 69h-50l25-69Z"/><path d="m932 333 25 69h-50l25-69ZM990 347l25 48h-50l25-48Z"/><path d="m945 347 25 48h-50l25-48ZM819 353l25 48h-50l25-48Z"/><path d="m802 365 25 48h-50l25-48Z"/><path d="m777 355 25 48h-50l25-48Z"/><path d="m790 369 25 48h-50l25-48ZM877 341l25 69h-50l25-69Z"/><path d="m835 355 25 69h-50l25-69ZM893 369l25 48h-50l25-48Z"/><path d="m848 369 25 48h-50l25-48ZM65 386l25 48H40l25-48Z"/><path d="m48 398 25 48H23l25-48Z"/><path d="m23 388 25 48H-2l25-48Z"/><path d="m36 402 25 48H11l25-48ZM123 374l25 69H98l25-69Z"/><path d="m81 388 25 69H56l25-69ZM139 402l25 48h-50l25-48Z"/><path d="m94 402 25 48H69l25-48Z"/></g><defs><clipPath id="clip0_1_3"><path fill="#fff" d="M0 0h1512v982H0z"/></clipPath></defs></svg>