<svg width="1512" height="982" fill="none" xmlns="http://www.w3.org/2000/svg"><g clip-path="url(#clip0_1_2191)" fill="#477035"><path d="M0 528h1512v454H0z"/><path d="M858 479h654v96H858z"/><path d="M1082 465h433v74h-433z"/><path d="M1315 435h200v74h-200zM65 526h274v80H65z"/><path d="M-26 473h241v80H-26zM1320 400h222v80h-222z"/><path d="m148 533 25 48h-50l25-48Z"/><path d="m131 545 25 48h-50l25-48Z"/><path d="m106 535 25 48H81l25-48Z"/><path d="m119 549 25 48H94l25-48ZM206 521l25 69h-50l25-69Z"/><path d="m164 535 25 69h-50l25-69ZM222 549l25 48h-50l25-48Z"/><path d="m177 549 25 48h-50l25-48ZM239 533l25 48h-50l25-48Z"/><path d="m222 545 25 48h-50l25-48Z"/><path d="m197 535 25 48h-50l25-48Z"/><path d="m210 549 25 48h-50l25-48ZM297 521l25 69h-50l25-69Z"/><path d="m255 535 25 69h-50l25-69ZM313 549l25 48h-50l25-48Z"/><path d="m268 549 25 48h-50l25-48ZM355 519l25 48h-50l25-48Z"/><path d="m338 531 25 48h-50l25-48Z"/><path d="m313 521 25 48h-50l25-48Z"/><path d="m326 535 25 48h-50l25-48ZM413 507l25 69h-50l25-69Z"/><path d="m371 521 25 69h-50l25-69ZM429 535l25 48h-50l25-48Z"/><path d="m384 535 25 48h-50l25-48ZM293 536l25 48h-50l25-48Z"/><path d="m276 548 25 48h-50l25-48Z"/><path d="m251 538 25 48h-50l25-48Z"/><path d="m264 552 25 48h-50l25-48ZM351 524l25 69h-50l25-69Z"/><path d="m309 538 25 69h-50l25-69ZM367 552l25 48h-50l25-48Z"/><path d="m322 552 25 48h-50l25-48ZM503 519l25 48h-50l25-48Z"/><path d="m486 531 25 48h-50l25-48Z"/><path d="m461 521 25 48h-50l25-48Z"/><path d="m474 535 25 48h-50l25-48ZM561 507l25 69h-50l25-69Z"/><path d="m519 521 25 69h-50l25-69ZM577 535l25 48h-50l25-48Z"/><path d="m532 535 25 48h-50l25-48Z"/><path d="m545 519 25 48h-50l25-48Z"/><path d="m528 531 25 48h-50l25-48Z"/><path d="m503 521 25 48h-50l25-48Z"/><path d="m516 535 25 48h-50l25-48ZM603 507l25 69h-50l25-69Z"/><path d="m561 521 25 69h-50l25-69ZM619 535l25 48h-50l25-48Z"/><path d="m574 535 25 48h-50l25-48ZM628 507l25 48h-50l25-48Z"/><path d="m611 519 25 48h-50l25-48Z"/><path d="m586 509 25 48h-50l25-48Z"/><path d="m599 523 25 48h-50l25-48ZM686 495l25 69h-50l25-69Z"/><path d="m644 509 25 69h-50l25-69ZM702 523l25 48h-50l25-48Z"/><path d="m657 523 25 48h-50l25-48ZM757 501l25 48h-50l25-48Z"/><path d="m740 513 25 48h-50l25-48Z"/><path d="m715 503 25 48h-50l25-48Z"/><path d="m728 517 25 48h-50l25-48ZM815 489l25 69h-50l25-69Z"/><path d="m773 503 25 69h-50l25-69ZM831 517l25 48h-50l25-48Z"/><path d="m786 517 25 48h-50l25-48ZM886 477l25 48h-50l25-48Z"/><path d="m869 489 25 48h-50l25-48Z"/><path d="m844 479 25 48h-50l25-48Z"/><path d="m857 493 25 48h-50l25-48ZM944 465l25 69h-50l25-69Z"/><path d="m902 479 25 69h-50l25-69ZM960 493l25 48h-50l25-48Z"/><path d="m915 493 25 48h-50l25-48ZM1009 452l25 48h-50l25-48Z"/><path d="m992 464 25 48h-50l25-48Z"/><path d="m967 454 25 48h-50l25-48Z"/><path d="m980 468 25 48h-50l25-48ZM1067 440l25 69h-50l25-69Z"/><path d="m1025 454 25 69h-50l25-69ZM1083 468l25 48h-50l25-48Z"/><path d="m1038 468 25 48h-50l25-48ZM1125 427l25 48h-50l25-48Z"/><path d="m1108 439 25 48h-50l25-48Z"/><path d="m1083 429 25 48h-50l25-48Z"/><path d="m1096 443 25 48h-50l25-48ZM1183 415l25 69h-50l25-69Z"/><path d="m1141 429 25 69h-50l25-69ZM1199 443l25 48h-50l25-48Z"/><path d="m1154 443 25 48h-50l25-48ZM1241 407l25 48h-50l25-48Z"/><path d="m1224 419 25 48h-50l25-48Z"/><path d="m1199 409 25 48h-50l25-48Z"/><path d="m1212 423 25 48h-50l25-48ZM1299 395l25 69h-50l25-69Z"/><path d="m1257 409 25 69h-50l25-69ZM1315 423l25 48h-50l25-48Z"/><path d="m1270 423 25 48h-50l25-48ZM1328 407l25 48h-50l25-48Z"/><path d="m1311 419 25 48h-50l25-48Z"/><path d="m1286 409 25 48h-50l25-48Z"/><path d="m1299 423 25 48h-50l25-48ZM1386 395l25 69h-50l25-69Z"/><path d="m1344 409 25 69h-50l25-69ZM1402 423l25 48h-50l25-48Z"/><path d="m1357 423 25 48h-50l25-48ZM1428 383l25 48h-50l25-48Z"/><path d="m1411 395 25 48h-50l25-48Z"/><path d="m1386 385 25 48h-50l25-48Z"/><path d="m1399 399 25 48h-50l25-48ZM1486 371l25 69h-50l25-69Z"/><path d="m1444 385 25 69h-50l25-69ZM1502 399l25 48h-50l25-48Z"/><path d="m1457 399 25 48h-50l25-48ZM1353 399l25 48h-50l25-48Z"/><path d="m1336 411 25 48h-50l25-48Z"/><path d="m1311 401 25 48h-50l25-48Z"/><path d="m1324 415 25 48h-50l25-48ZM1411 387l25 69h-50l25-69Z"/><path d="m1369 401 25 69h-50l25-69ZM1427 415l25 48h-50l25-48Z"/><path d="m1382 415 25 48h-50l25-48ZM1150 419l25 48h-50l25-48Z"/><path d="m1133 431 25 48h-50l25-48Z"/><path d="m1108 421 25 48h-50l25-48Z"/><path d="m1121 435 25 48h-50l25-48ZM1208 407l25 69h-50l25-69Z"/><path d="m1166 421 25 69h-50l25-69ZM1224 435l25 48h-50l25-48Z"/><path d="m1179 435 25 48h-50l25-48ZM916 475l25 48h-50l25-48Z"/><path d="m899 487 25 48h-50l25-48Z"/><path d="m874 477 25 48h-50l25-48Z"/><path d="m887 491 25 48h-50l25-48ZM974 463l25 69h-50l25-69Z"/><path d="m932 477 25 69h-50l25-69ZM990 491l25 48h-50l25-48Z"/><path d="m945 491 25 48h-50l25-48ZM819 497l25 48h-50l25-48Z"/><path d="m802 509 25 48h-50l25-48Z"/><path d="m777 499 25 48h-50l25-48Z"/><path d="m790 513 25 48h-50l25-48ZM877 485l25 69h-50l25-69Z"/><path d="m835 499 25 69h-50l25-69ZM893 513l25 48h-50l25-48Z"/><path d="m848 513 25 48h-50l25-48ZM65 530l25 48H40l25-48Z"/><path d="m48 542 25 48H23l25-48Z"/><path d="m23 532 25 48H-2l25-48Z"/><path d="m36 546 25 48H11l25-48ZM123 518l25 69H98l25-69Z"/><path d="m81 532 25 69H56l25-69ZM139 546l25 48h-50l25-48Z"/><path d="m94 546 25 48H69l25-48ZM161 506l25 48h-50l25-48Z"/><path d="m144 518 25 48h-50l25-48Z"/><path d="m119 508 25 48H94l25-48Z"/><path d="m132 522 25 48h-50l25-48ZM219 494l25 69h-50l25-69Z"/><path d="m177 508 25 69h-50l25-69ZM235 522l25 48h-50l25-48Z"/><path d="m190 522 25 48h-50l25-48ZM310 500l25 48h-50l25-48Z"/><path d="m293 512 25 48h-50l25-48Z"/><path d="m268 502 25 48h-50l25-48Z"/><path d="m281 516 25 48h-50l25-48ZM368 488l25 69h-50l25-69Z"/><path d="m326 502 25 69h-50l25-69ZM384 516l25 48h-50l25-48Z"/><path d="m339 516 25 48h-50l25-48ZM445 494l25 48h-50l25-48Z"/><path d="m428 506 25 48h-50l25-48Z"/><path d="m403 496 25 48h-50l25-48Z"/><path d="m416 510 25 48h-50l25-48ZM503 482l25 69h-50l25-69Z"/><path d="m461 496 25 69h-50l25-69ZM519 510l25 48h-50l25-48Z"/><path d="m474 510 25 48h-50l25-48Z"/><path d="m445 494 25 48h-50l25-48Z"/><path d="m428 506 25 48h-50l25-48Z"/><path d="m403 496 25 48h-50l25-48Z"/><path d="m416 510 25 48h-50l25-48ZM503 482l25 69h-50l25-69Z"/><path d="m461 496 25 69h-50l25-69ZM519 510l25 48h-50l25-48Z"/><path d="m474 510 25 48h-50l25-48ZM45 498l25 48H20l25-48Z"/><path d="m28 510 25 48H3l25-48Z"/><path d="m3 500 25 48h-50l25-48Z"/><path d="m16 514 25 48H-9l25-48ZM103 486l25 69H78l25-69Z"/><path d="m61 500 25 69H36l25-69ZM119 514l25 48H94l25-48Z"/><path d="m74 514 25 48H49l25-48ZM110 474l25 48H85l25-48Z"/><path d="m93 486 25 48H68l25-48Z"/><path d="m68 476 25 48H43l25-48Z"/><path d="m81 490 25 48H56l25-48ZM168 462l25 69h-50l25-69Z"/><path d="m126 476 25 69h-50l25-69ZM184 490l25 48h-50l25-48Z"/><path d="m139 490 25 48h-50l25-48ZM52 462l25 48H27l25-48Z"/><path d="m35 474 25 48H10l25-48Z"/><path d="m10 464 25 48h-50l25-48Z"/><path d="m23 478 25 48H-2l25-48ZM110 450l25 69H85l25-69Z"/><path d="m68 464 25 69H43l25-69ZM126 478l25 48h-50l25-48Z"/><path d="m81 478 25 48H56l25-48ZM206 478l25 48h-50l25-48Z"/><path d="m189 490 25 48h-50l25-48Z"/><path d="m164 480 25 48h-50l25-48Z"/><path d="m177 494 25 48h-50l25-48ZM264 466l25 69h-50l25-69Z"/><path d="m222 480 25 69h-50l25-69ZM280 494l25 48h-50l25-48Z"/><path d="m235 494 25 48h-50l25-48ZM186 446l25 48h-50l25-48Z"/><path d="m169 458 25 48h-50l25-48Z"/><path d="m144 448 25 48h-50l25-48Z"/><path d="m157 462 25 48h-50l25-48ZM244 434l25 69h-50l25-69Z"/><path d="m202 448 25 69h-50l25-69ZM260 462l25 48h-50l25-48Z"/><path d="m215 462 25 48h-50l25-48Z"/><path d="m255 464 25 48h-50l25-48Z"/><path d="m238 476 25 48h-50l25-48Z"/><path d="m213 466 25 48h-50l25-48Z"/><path d="m226 480 25 48h-50l25-48ZM313 452l25 69h-50l25-69Z"/><path d="m271 466 25 69h-50l25-69ZM329 480l25 48h-50l25-48Z"/><path d="m284 480 25 48h-50l25-48ZM52 426l25 48H27l25-48Z"/><path d="m35 438 25 48H10l25-48Z"/><path d="m10 428 25 48h-50l25-48Z"/><path d="m23 442 25 48H-2l25-48ZM110 414l25 69H85l25-69Z"/><path d="m68 428 25 69H43l25-69ZM126 442l25 48h-50l25-48Z"/><path d="m81 442 25 48H56l25-48ZM305 462l25 48h-50l25-48Z"/><path d="m288 474 25 48h-50l25-48Z"/><path d="m263 464 25 48h-50l25-48Z"/><path d="m276 478 25 48h-50l25-48ZM363 450l25 69h-50l25-69Z"/><path d="m321 464 25 69h-50l25-69ZM379 478l25 48h-50l25-48Z"/><path d="m334 478 25 48h-50l25-48ZM387 478l25 48h-50l25-48Z"/><path d="m370 490 25 48h-50l25-48Z"/><path d="m345 480 25 48h-50l25-48Z"/><path d="m358 494 25 48h-50l25-48ZM445 466l25 69h-50l25-69Z"/><path d="m403 480 25 69h-50l25-69ZM461 494l25 48h-50l25-48Z"/><path d="m416 494 25 48h-50l25-48ZM520 484l25 48h-50l25-48Z"/><path d="m503 496 25 48h-50l25-48Z"/><path d="m478 486 25 48h-50l25-48Z"/><path d="m491 500 25 48h-50l25-48ZM578 472l25 69h-50l25-69Z"/><path d="m536 486 25 69h-50l25-69ZM594 500l25 48h-50l25-48Z"/><path d="m549 500 25 48h-50l25-48ZM1366 372l25 48h-50l25-48Z"/><path d="m1349 384 25 48h-50l25-48Z"/><path d="m1324 374 25 48h-50l25-48Z"/><path d="m1337 388 25 48h-50l25-48ZM1424 360l25 69h-50l25-69Z"/><path d="m1382 374 25 69h-50l25-69ZM1440 388l25 48h-50l25-48Z"/><path d="m1395 388 25 48h-50l25-48ZM1449 350l25 48h-50l25-48Z"/><path d="m1432 362 25 48h-50l25-48Z"/><path d="m1407 352 25 48h-50l25-48Z"/><path d="m1420 366 25 48h-50l25-48ZM1507 338l25 69h-50l25-69Z"/><path d="m1465 352 25 69h-50l25-69ZM1523 366l25 48h-50l25-48Z"/><path d="m1478 366 25 48h-50l25-48ZM1033 436l25 48h-50l25-48Z"/><path d="m1016 448 25 48h-50l25-48Z"/><path d="m991 438 25 48h-50l25-48Z"/><path d="m1004 452 25 48h-50l25-48ZM1091 424l25 69h-50l25-69Z"/><path d="m1049 438 25 69h-50l25-69ZM1107 452l25 48h-50l25-48Z"/><path d="m1062 452 25 48h-50l25-48ZM663 482l25 48h-50l25-48Z"/><path d="m646 494 25 48h-50l25-48Z"/><path d="m621 484 25 48h-50l25-48Z"/><path d="m634 498 25 48h-50l25-48ZM721 470l25 69h-50l25-69Z"/><path d="m679 484 25 69h-50l25-69ZM737 498l25 48h-50l25-48Z"/><path d="m692 498 25 48h-50l25-48ZM902 440l25 48h-50l25-48Z"/><path d="m885 452 25 48h-50l25-48Z"/><path d="m860 442 25 48h-50l25-48Z"/><path d="m873 456 25 48h-50l25-48ZM960 428l25 69h-50l25-69Z"/><path d="m918 442 25 69h-50l25-69ZM976 456l25 48h-50l25-48Z"/><path d="m931 456 25 48h-50l25-48ZM1090 402l25 48h-50l25-48Z"/><path d="m1073 414 25 48h-50l25-48Z"/><path d="m1048 404 25 48h-50l25-48Z"/><path d="m1061 418 25 48h-50l25-48ZM1148 390l25 69h-50l25-69Z"/><path d="m1106 404 25 69h-50l25-69ZM1164 418l25 48h-50l25-48Z"/><path d="m1119 418 25 48h-50l25-48ZM840 470l25 48h-50l25-48Z"/><path d="m823 482 25 48h-50l25-48Z"/><path d="m798 472 25 48h-50l25-48Z"/><path d="m811 486 25 48h-50l25-48ZM898 458l25 69h-50l25-69Z"/><path d="m856 472 25 69h-50l25-69ZM914 486l25 48h-50l25-48Z"/><path d="m869 486 25 48h-50l25-48Z"/><path d="m840 470 25 48h-50l25-48Z"/><path d="m823 482 25 48h-50l25-48Z"/><path d="m798 472 25 48h-50l25-48Z"/><path d="m811 486 25 48h-50l25-48ZM898 458l25 69h-50l25-69Z"/><path d="m856 472 25 69h-50l25-69ZM914 486l25 48h-50l25-48Z"/><path d="m869 486 25 48h-50l25-48ZM1089 420l40 48h-80l40-48Z"/><path d="m1062 432 40 48h-81l41-48Z"/><path d="m1022 422 40 48h-81l41-48Z"/><path d="m1042 436 41 48h-81l40-48ZM1182 408l40 69h-80l40-69Z"/><path d="m1115 422 40 69h-81l41-69ZM1208 436l40 48h-81l41-48Z"/><path d="m1135 436 41 48h-81l40-48Z"/></g><defs><clipPath id="clip0_1_2191"><path fill="#fff" d="M0 0h1512v982H0z"/></clipPath></defs></svg>