<svg width="1512" height="982" fill="none" xmlns="http://www.w3.org/2000/svg"><g clip-path="url(#clip0_1_2)"><path d="M277 401H26c-19-6-26-11-26-28 3-20 16-29 32-27 2-9 9-13 11-15 9-6 12-6 21-3 0 0 10-12 23-10l1-4 2-2c2-4 4-5 6-6 2-4 9-7 9-7s6-2 13-1c7-5 18-5 27-1 9 6 10 10 11 17 7 0 13 1 17 4 5 4 8 10 8 10 7-4 11-2 14 0l5 7s18-2 23 3c8 4 10 7 12 13 8 1 11 2 15 5 4-3 6-4 12-2 5 2 7 3 10 8 12 0 17 6 17 20-1 12-4 15-12 19Z" fill="#EEE"/><path d="M290 452H86c-23-11-31-20-33-44 3-28 11-41 42-42 4-14 8-20 20-27 12-6 18-7 28 0 7-13 14-15 29-18 11 1 16 3 22 9 2-16 7-20 20-25 18 1 22 7 23 25 27-6 27 16 27 16 26 0 27 20 30 31 23 0 20 28 20 39 0 12-8 36-24 36ZM702 434H580c-14-6-19-11-20-25 2-16 6-24 25-24 3-8 5-12 12-16 7-3 11-4 17 0 4-7 9-8 17-10 7 1 10 2 14 5 1-9 4-11 11-14 11 0 14 4 15 14 16-3 16 10 16 10 15 0 16 11 18 17 14 0 12 16 12 23 0 6-5 20-15 20Z" fill="#B4CFEF"/><path d="M701 476H377c-24-10-34-18-34-44 3-31 21-45 42-42 2-14 11-20 14-23 11-9 15-9 27-5 0 0 13-19 29-16l2-5 2-5c3-5 6-6 9-8 2-6 11-11 11-11s8-3 17-1c9-9 23-9 34-2 12 8 14 15 15 27 9-1 17 1 22 5 7 6 10 16 10 16 9-6 14-3 18 0l7 11s23-3 30 4c10 7 13 12 15 21 9 1 14 2 20 8 4-5 7-6 15-4 6 3 9 6 12 12 16 1 22 11 23 32-1 19-5 24-16 30Z" fill="#CEE9FF"/><path d="M1091 401H840c-19-6-26-11-26-28 3-20 16-29 32-27 2-9 9-13 11-15 9-6 12-6 21-3 0 0 10-12 23-10l1-4 2-2c2-4 4-5 6-6 2-4 9-7 9-7s6-2 13-1c7-5 18-5 27-1 9 6 10 10 11 17 7 0 13 1 17 4 5 4 8 10 8 10 7-4 11-2 14 0l5 7s18-2 23 3c8 4 10 7 12 13 8 1 11 2 15 5 4-3 6-4 12-2 5 2 7 3 10 8 12 0 17 6 17 20-1 12-4 15-12 19ZM1489 379h-204c-23-11-31-20-33-44 3-28 11-41 42-42 4-14 8-20 20-27 12-6 18-7 28 0 7-13 14-15 29-18 11 1 16 3 22 9 2-16 7-20 20-25 18 1 22 7 23 25 27-6 27 16 27 16 26 0 27 20 30 31 23 0 20 28 20 39 0 12-8 36-24 36Z" fill="#B4CFEF"/><path d="M1256 389h-122c-14-6-19-11-20-25 2-16 6-24 25-24 3-8 5-12 12-16 7-3 11-4 17 0 4-7 9-8 17-10 7 1 10 2 14 5 1-9 4-11 12-14 10 0 13 4 14 14 16-3 16 10 16 10 15 0 16 11 18 17 14 0 12 16 12 23 0 6-5 20-15 20Z" fill="#E9EEF3"/><path d="M1236 436H912c-24-10-34-18-34-44 3-31 21-45 42-42 2-14 11-20 14-23 11-9 15-9 27-5 0 0 13-19 29-16l2-5 2-5c3-5 6-6 9-8 2-6 11-11 11-11s8-3 17-1c9-9 23-9 34-2 12 8 14 15 15 27 9-1 17 1 22 5 7 6 10 16 10 16 9-6 14-3 18 0l7 11s23-3 30 4c10 7 13 12 15 21 9 1 14 2 20 8 4-5 7-6 15-4 6 3 9 6 12 12 16 1 22 11 23 32-1 19-5 24-16 30Z" fill="#CEE9FF"/><path d="m10 374-11 18v588h1513V298l-5-14-16 45-4-12-3 6-6-11-5 8-8-22-6 18-10-20-11 22-6-9-4 7-3-9-2 7-2-2-3 6-11-20-19 36-6-14-6 17-10-19-10 23-7-10-7 11-4-8-4 5-10-19-20 36-5-14-8 22-5-8-11 22-4-9-5 9-9-22-6 15-10-17-11 22-6-10-8 12-8-24-5 10-4-9-7 15-10-16-12 20-6-10-3 7-13-35-17 46-4-10-3 2-4-10-3 7-2-3-2 2-7-20-6 18-10-18-11 20-5-9-7 13-6-10-2 6-11-20-16 31-10-13-25 29-6-13-12 23-2-5-4 6-13-34-13 41-2-3-4 9-10-18-4 9-9-24-6 17-10-19-12 22-4-10-8 14-5-10-3 5-10-19-17 34-3-6-12 21-5-8-5 12-3-7-2 3-2-5-4 5-8-19-18 34-3-5-3 5-2-3-7 15-9-17-9 17-11-20-3 5-13-33-18 48-10-20-4 5-3-8-1 3-6-13-6 16-9-18-13 20-5-10-7 15-5-10-3 5-10-18-15 29-3-5-1 5-8-13-3 5-13-34-14 40-3-3-3 7-8-15-5 8-9-23-6 17-9-18-11 18-7-20-8 23-3-5-3 5-11-20-11 20-6-13-3 8-13-34-15 42-2-3-2 6-9-19-5 10-9-23-6 16-10-19-4 8-4-8-5 6-9-30-13 40-7-10-6 5-5-5-5 5-11-29-10 13-6-8-9 19-6-11-8 16-6-24-6 8-4-13-9 10-9-35-18 49-8-24-8 10-7-23-9 13-8-13-12 23-6-10-6 10-5-10-5 10-9-23-8 13-9-19-7 13-13-39-14 45-8-19-8 6-11-18-5 18-11-18-10 18-5-6-7 13-5-13-5 6-8-18Z" fill="#1F4C0A"/><path d="m2 589-3 8v383h1512V404l-6 22-5-16-9 16-7-22-18 50-12-22-4 10-8-23-6 15-11-18-10 18-7-15-7 23-4-10-4 6-9-19-14 23-4-8-6 17-10-17-8 20-7-9-3 6-7-9-6 12-9-20-8 11-5-17-8 23-6-9-10 23-6-8-4 8-8-23-6 18-10-18-12 21-5-9-7 11-9-23-4 9-4-9-12 21-5-15-9 25-8-19-8 15-8-15-13 19-5-10-3 6-4-9-8 13-8-19-16 27-10-18-12 22-4-12-18 50-11-24-5 12-9-23-6 17-10-20-11 23-6-9-6 12-10-19-3 7-5-11-17 31-6-8-7 12-6-9-6 12-9-15-10 15-5-12-6 16-10-19-6 12-5-12-11 26-5-11-4 7-10-19-18 34-10-22-9 25-6-7-10 18-14-29-11 21-8-17-12 20-6-9-6 14-4-11-4 6-11-20-17 29-12-36-17 50-12-23-4 9-9-22-6 18-9-22-12 22-5-8-3 3-7-13-6 18-10-18-14 26-10-30-10 30-7-16-9 21-4-9-2 4-3-4-3 4-5-13-6 18-10-21-11 21-6-9-7 14-5-10-3 5-10-18-20 36-12-23-3 7-13-36-18 48-11-19-5 7-8-20-7 17-10-20-10 20-7-6-6 9-5-9-4 6-8-17-10 17-6-17-15 36-6-9-3 9-5-9-5 5-7-19-4 7-2-3-5 7-7-13-12 21-5-8-5 5-10-32-8 20-3-4-13 27-6-13-5 9-9-23-6 16-9-18-13 18-12-32-9 30-8-14-9 16-4-5-4 8-9-21-6 13-8-13-13 18-5-9-7 12-5-8-3 5-10-18-15 29-4-8Z" fill="#477035"/></g><defs><clipPath id="clip0_1_2"><path fill="#fff" d="M0 0h1512v982H0z"/></clipPath></defs></svg>