<svg width="200" height="200" fill="none" xmlns="http://www.w3.org/2000/svg"><g clip-path="url(#clip0_12_2)"><path fill="#404137" d="M0 0h200v200H0z"/><circle cx="100" cy="100" r="80" fill="#FFEB83"/><circle cx="100" cy="100" r="24" fill="#404137"/><circle cx="100" cy="100" r="24" fill="#404137"/><circle cx="100" cy="100" r="8" fill="#fff"/><mask id="path-4-inside-1_12_2" fill="#fff"><path d="M165 90c-2-15-10-29-21-39l-11 13c8 7 14 18 15 29l17-3Z"/></mask><path d="M165 90c-2-15-10-29-21-39l-11 13c8 7 14 18 15 29l17-3Z" fill="#D9D9D9" stroke="#E3D16E" stroke-width="36" mask="url(#path-4-inside-1_12_2)"/><mask id="path-5-inside-2_12_2" fill="#fff"><path d="M34 114c4 15 12 29 24 38l10-13c-8-7-14-17-17-28l-17 3Z"/></mask><path d="M34 114c4 15 12 29 24 38l10-13c-8-7-14-17-17-28l-17 3Z" fill="#D9D9D9" stroke="#E3D16E" stroke-width="36" mask="url(#path-5-inside-2_12_2)"/><ellipse cx="2" cy="162.6" rx="22.6" ry="17.8" fill="#B4CFEF"/><path fill="#B4CFEF" d="M0 145h104v35H0z"/><ellipse cx="36.5" cy="150" rx="25.5" ry="18.8" fill="#B4CFEF"/><ellipse cx="36.5" cy="135.3" rx="25.5" ry="18.8" fill="#B4CFEF"/><ellipse cx="61.5" cy="149.8" rx="25.5" ry="18.8" fill="#B4CFEF"/><ellipse cx="87.4" cy="153.8" rx="16.5" ry="19.3" fill="#B4CFEF"/><ellipse cx="103.5" cy="161" rx="16.5" ry="19" fill="#B4CFEF"/><ellipse cx="11.2" cy="141.8" rx="20.3" ry="33.6" fill="#B4CFEF"/></g><defs><clipPath id="clip0_12_2"><path fill="#fff" d="M0 0h200v200H0z"/></clipPath></defs></svg>